{
  "accessors": [
    {
      "bufferView": 2,
      "componentType": 5126,
      "count": 4497,
      "max": [
        16638.2734375,
        29667.109375,
        35149.69140625
      ],
      "min": [
        5334.1259765625,
        14749.0341796875,
        -43023.8828125
      ],
      "type": "VEC3"
    },
    {
      "bufferView": 2,
      "byteOffset": 53964,
      "componentType": 5126,
      "count": 4497,
      "max": [
        1,
        1,
        1
      ],
      "min": [
        -1,
        -1,
        -1
      ],
      "type": "VEC3"
    },
    {
      "bufferView": 3,
      "componentType": 5126,
      "count": 4497,
      "max": [
        1,
        1,
        1,
        1
      ],
      "min": [
        -1,
        -1,
        -1,
        -1
      ],
      "type": "VEC4"
    },
    {
      "bufferView": 2,
      "byteOffset": 107928,
      "componentType": 5126,
      "count": 4497,
      "max": [
        1,
        1,
        1
      ],
      "min": [
        1,
        1,
        1
      ],
      "type": "VEC3"
    },
    {
      "bufferView": 1,
      "componentType": 5126,
      "count": 4497,
      "max": [
        0.99660998582839966,
        0.99195998907089233
      ],
      "min": [
        0.001129999989643693,
        0.0022499999031424522
      ],
      "type": "VEC2"
    },
    {
      "bufferView": 0,
      "componentType": 5125,
      "count": 13284,
      "max": [
        4496
      ],
      "min": [
        0
      ],
      "type": "SCALAR"
    },
    {
      "bufferView": 2,
      "byteOffset": 161892,
      "componentType": 5126,
      "count": 12241,
      "max": [
        43181.046875,
        6806.3193359375,
        45161.9609375
      ],
      "min": [
        -21208.650390625,
        -499.6602783203125,
        -27446.265625
      ],
      "type": "VEC3"
    },
    {
      "bufferView": 2,
      "byteOffset": 308784,
      "componentType": 5126,
      "count": 12241,
      "max": [
        1,
        1,
        1
      ],
      "min": [
        -1,
        -1,
        -1
      ],
      "type": "VEC3"
    },
    {
      "bufferView": 3,
      "byteOffset": 71952,
      "componentType": 5126,
      "count": 12241,
      "max": [
        1,
        1,
        1,
        1
      ],
      "min": [
        -1,
        -1,
        -1,
        -1
      ],
      "type": "VEC4"
    },
    {
      "bufferView": 2,
      "byteOffset": 455676,
      "componentType": 5126,
      "count": 12241,
      "max": [
        1,
        1,
        1
      ],
      "min": [
        1,
        1,
        1
      ],
      "type": "VEC3"
    },
    {
      "bufferView": 1,
      "byteOffset": 35976,
      "componentType": 5126,
      "count": 12241,
      "max": [
        0.99997001886367798,
        0.99997001886367798
      ],
      "min": [
        2.9999999242136255e-05,
        2.9999999242136255e-05
      ],
      "type": "VEC2"
    },
    {
      "bufferView": 0,
      "byteOffset": 53136,
      "componentType": 5125,
      "count": 30237,
      "max": [
        12240
      ],
      "min": [
        0
      ],
      "type": "SCALAR"
    },
    {
      "bufferView": 2,
      "byteOffset": 602568,
      "componentType": 5126,
      "count": 6936,
      "max": [
        41246.67578125,
        10421.732421875,
        47197.5625
      ],
      "min": [
        -19274.27734375,
        -325.8341064453125,
        -28462.904296875
      ],
      "type": "VEC3"
    },
    {
      "bufferView": 2,
      "byteOffset": 685800,
      "componentType": 5126,
      "count": 6936,
      "max": [
        1,
        1,
        1
      ],
      "min": [
        -1,
        -1,
        -1
      ],
      "type": "VEC3"
    },
    {
      "bufferView": 3,
      "byteOffset": 267808,
      "componentType": 5126,
      "count": 6936,
      "max": [
        1,
        1,
        1,
        1
      ],
      "min": [
        -1,
        -1,
        -1,
        -1
      ],
      "type": "VEC4"
    },
    {
      "bufferView": 2,
      "byteOffset": 769032,
      "componentType": 5126,
      "count": 6936,
      "max": [
        1,
        1,
        1
      ],
      "min": [
        1,
        1,
        1
      ],
      "type": "VEC3"
    },
    {
      "bufferView": 1,
      "byteOffset": 133904,
      "componentType": 5126,
      "count": 6936,
      "max": [
        0.99601000547409058,
        0.9980199933052063
      ],
      "min": [
        0.0038499999791383743,
        0.0068700001575052738
      ],
      "type": "VEC2"
    },
    {
      "bufferView": 0,
      "byteOffset": 174084,
      "componentType": 5125,
      "count": 35622,
      "max": [
        6935
      ],
      "min": [
        0
      ],
      "type": "SCALAR"
    },
    {
      "bufferView": 2,
      "byteOffset": 852264,
      "componentType": 5126,
      "count": 12629,
      "max": [
        22696.779296875,
        25030.251953125,
        23767.548828125
      ],
      "min": [
        2623.8525390625,
        4872.85009765625,
        -449.54617309570312
      ],
      "type": "VEC3"
    },
    {
      "bufferView": 2,
      "byteOffset": 1003812,
      "componentType": 5126,
      "count": 12629,
      "max": [
        1,
        1,
        1
      ],
      "min": [
        -1,
        -1,
        -1
      ],
      "type": "VEC3"
    },
    {
      "bufferView": 3,
      "byteOffset": 378784,
      "componentType": 5126,
      "count": 12629,
      "max": [
        1,
        1,
        1,
        1
      ],
      "min": [
        -1,
        -1,
        -1,
        -1
      ],
      "type": "VEC4"
    },
    {
      "bufferView": 2,
      "byteOffset": 1155360,
      "componentType": 5126,
      "count": 12629,
      "max": [
        1,
        1,
        1
      ],
      "min": [
        1,
        1,
        1
      ],
      "type": "VEC3"
    },
    {
      "bufferView": 1,
      "byteOffset": 189392,
      "componentType": 5126,
      "count": 12629,
      "max": [
        0.98921000957489014,
        0.99598997831344604
      ],
      "min": [
        0.0056599997915327549,
        0.0027000000700354576
      ],
      "type": "VEC2"
    },
    {
      "bufferView": 0,
      "byteOffset": 316572,
      "componentType": 5125,
      "count": 58797,
      "max": [
        12628
      ],
      "min": [
        0
      ],
      "type": "SCALAR"
    }
  ],
  "asset": {
    "extras": {
      "author": "bear17 (https://sketchfab.com/bear17)",
      "license": "CC-BY-4.0 (http://creativecommons.org/licenses/by/4.0/)",
      "source": "https://sketchfab.com/models/95b1335520714a78b83f67a1c04a75da",
      "title": "Flak 18-36 88mm Anti-Aircraft cannon"
    },
    "generator": "Sketchfab-3.18.2",
    "version": "2.0"
  },
  "bufferViews": [
    {
      "buffer": 0,
      "byteLength": 551760,
      "byteOffset": 0,
      "name": "floatBufferViews",
      "target": 34963
    },
    {
      "buffer": 0,
      "byteLength": 290424,
      "byteOffset": 551760,
      "byteStride": 8,
      "name": "floatBufferViews",
      "target": 34962
    },
    {
      "buffer": 0,
      "byteLength": 1306908,
      "byteOffset": 842184,
      "byteStride": 12,
      "name": "floatBufferViews",
      "target": 34962
    },
    {
      "buffer": 0,
      "byteLength": 580848,
      "byteOffset": 2149092,
      "byteStride": 16,
      "name": "floatBufferViews",
      "target": 34962
    }
  ],
  "buffers": [
    {
      "byteLength": 2729940,
      "uri": "scene.bin"
    }
  ],
  "extensionsRequired": [
    "KHR_materials_pbrSpecularGlossiness"
  ],
  "extensionsUsed": [
    "KHR_materials_pbrSpecularGlossiness"
  ],
  "images": [
    {
      "uri": "textures/mat_sous_haut_occlusion.png"
    },
    {
      "uri": "textures/mat_sous_haut_diffuse.png"
    },
    {
      "uri": "textures/mat_sous_haut_normal.png"
    },
    {
      "uri": "textures/Mat_pied_occlusion.png"
    },
    {
      "uri": "textures/Mat_pied_diffuse.png"
    },
    {
      "uri": "textures/Mat_pied_normal.png"
    },
    {
      "uri": "textures/Mat_haut_occlusion.png"
    },
    {
      "uri": "textures/Mat_haut_diffuse.png"
    },
    {
      "uri": "textures/Mat_haut_normal.png"
    },
    {
      "uri": "textures/Mat_pied_detail_occlusion.png"
    },
    {
      "uri": "textures/Mat_pied_detail_diffuse.png"
    },
    {
      "uri": "textures/Mat_pied_detail_normal.png"
    }
  ],
  "materials": [
    {
      "doubleSided": true,
      "emissiveFactor": [
        0,
        0,
        0
      ],
      "extensions": {
        "KHR_materials_pbrSpecularGlossiness": {
          "diffuseFactor": [
            1,
            1,
            1,
            1
          ],
          "diffuseTexture": {
            "index": 7,
            "texCoord": 0
          },
          "glossinessFactor": 0.23999999999999999,
          "specularFactor": [
            0.059999999999999998,
            0.059999999999999998,
            0.059999999999999998
          ]
        }
      },
      "name": "Mat_haut",
      "normalTexture": {
        "index": 8,
        "scale": 0.040000000000000001,
        "texCoord": 0
      },
      "occlusionTexture": {
        "index": 6,
        "strength": 0.040000000000000001,
        "texCoord": 0
      }
    },
    {
      "doubleSided": true,
      "emissiveFactor": [
        0,
        0,
        0
      ],
      "extensions": {
        "KHR_materials_pbrSpecularGlossiness": {
          "diffuseFactor": [
            0.81000000000000005,
            0.81000000000000005,
            0.81000000000000005,
            1
          ],
          "diffuseTexture": {
            "index": 10,
            "texCoord": 0
          },
          "glossinessFactor": 0.29999999999999999,
          "specularFactor": [
            0.059999999999999998,
            0.059999999999999998,
            0.059999999999999998
          ]
        }
      },
      "name": "Mat_pied_detail",
      "normalTexture": {
        "index": 11,
        "scale": 0.040000000000000001,
        "texCoord": 0
      },
      "occlusionTexture": {
        "index": 9,
        "strength": 0.040000000000000001,
        "texCoord": 0
      }
    },
    {
      "doubleSided": true,
      "emissiveFactor": [
        0,
        0,
        0
      ],
      "extensions": {
        "KHR_materials_pbrSpecularGlossiness": {
          "diffuseFactor": [
            1,
            1,
            1,
            1
          ],
          "diffuseTexture": {
            "index": 4,
            "texCoord": 0
          },
          "glossinessFactor": 0.23999999999999999,
          "specularFactor": [
            0.059999999999999998,
            0.059999999999999998,
            0.059999999999999998
          ]
        }
      },
      "name": "Mat_pied",
      "normalTexture": {
        "index": 5,
        "scale": 0.040000000000000001,
        "texCoord": 0
      },
      "occlusionTexture": {
        "index": 3,
        "strength": 0.040000000000000001,
        "texCoord": 0
      }
    },
    {
      "doubleSided": true,
      "emissiveFactor": [
        0,
        0,
        0
      ],
      "extensions": {
        "KHR_materials_pbrSpecularGlossiness": {
          "diffuseFactor": [
            0.59999999999999998,
            0.59999999999999998,
            0.59999999999999998,
            1
          ],
          "diffuseTexture": {
            "index": 1,
            "texCoord": 0
          },
          "glossinessFactor": 0.32000000000000001,
          "specularFactor": [
            0.20000000000000001,
            0.20000000000000001,
            0.20000000000000001
          ]
        }
      },
      "name": "mat_sous_haut",
      "normalTexture": {
        "index": 2,
        "scale": 0.31,
        "texCoord": 0
      },
      "occlusionTexture": {
        "index": 0,
        "strength": 0.14000000000000001,
        "texCoord": 0
      }
    }
  ],
  "meshes": [
    {
      "name": "Asset Flak",
      "primitives": [
        {
          "attributes": {
            "COLOR_0": 3,
            "NORMAL": 1,
            "POSITION": 0,
            "TANGENT": 2,
            "TEXCOORD_0": 4
          },
          "indices": 5,
          "material": 0,
          "mode": 4
        }
      ]
    },
    {
      "name": "Asset Flak",
      "primitives": [
        {
          "attributes": {
            "COLOR_0": 9,
            "NORMAL": 7,
            "POSITION": 6,
            "TANGENT": 8,
            "TEXCOORD_0": 10
          },
          "indices": 11,
          "material": 1,
          "mode": 4
        }
      ]
    },
    {
      "name": "Asset Flak",
      "primitives": [
        {
          "attributes": {
            "COLOR_0": 15,
            "NORMAL": 13,
            "POSITION": 12,
            "TANGENT": 14,
            "TEXCOORD_0": 16
          },
          "indices": 17,
          "material": 2,
          "mode": 4
        }
      ]
    },
    {
      "name": "Asset Flak",
      "primitives": [
        {
          "attributes": {
            "COLOR_0": 21,
            "NORMAL": 19,
            "POSITION": 18,
            "TANGENT": 20,
            "TEXCOORD_0": 22
          },
          "indices": 23,
          "material": 3,
          "mode": 4
        }
      ]
    }
  ],
  "nodes": [
    {
      "children": [
        1
      ],
      "name": "RootNode (gltf orientation matrix)",
      "rotation": [
        -0.70710678118654746,
        -0,
        -0,
        0.70710678118654757
      ]
    },
    {
      "children": [
        2
      ],
      "name": "RootNode (model correction matrix)"
    },
    {
      "children": [
        3
      ],
      "name": "Root"
    },
    {
      "children": [
        4,
        5,
        6,
        7
      ],
      "matrix": [
        0,
        -5.0000000000000023e-05,
        0,
        0,
        -0,
        -0,
        5.0000000000000023e-05,
        0,
        -5.0000000000000023e-05,
        -0,
        -0,
        0,
        0,
        0.52293000000000001,
        0.028480000000000005,
        1
      ],
      "name": "Asset Flak"
    },
    {
      "mesh": 0,
      "name": "Asset Flak"
    },
    {
      "mesh": 1,
      "name": "Asset Flak"
    },
    {
      "mesh": 2,
      "name": "Asset Flak"
    },
    {
      "mesh": 3,
      "name": "Asset Flak"
    }
  ],
  "samplers": [
    {
      "magFilter": 9729,
      "minFilter": 9987,
      "wrapS": 10497,
      "wrapT": 10497
    }
  ],
  "scene": 0,
  "scenes": [
    {
      "name": "OSG_Scene",
      "nodes": [
        0
      ]
    }
  ],
  "textures": [
    {
      "sampler": 0,
      "source": 0
    },
    {
      "sampler": 0,
      "source": 1
    },
    {
      "sampler": 0,
      "source": 2
    },
    {
      "sampler": 0,
      "source": 3
    },
    {
      "sampler": 0,
      "source": 4
    },
    {
      "sampler": 0,
      "source": 5
    },
    {
      "sampler": 0,
      "source": 6
    },
    {
      "sampler": 0,
      "source": 7
    },
    {
      "sampler": 0,
      "source": 8
    },
    {
      "sampler": 0,
      "source": 9
    },
    {
      "sampler": 0,
      "source": 10
    },
    {
      "sampler": 0,
      "source": 11
    }
  ]
}

